<svg width="133" height="16" viewBox="0 0 133 16" fill="none" xmlns="http://www.w3.org/2000/svg">
<path d="M126.146 11.2025C125.633 11.2025 125.181 11.1107 124.788 10.927C124.395 10.7434 124.088 10.4807 123.866 10.1388C123.645 9.79687 123.534 9.38536 123.534 8.90418V8.63825H124.769V8.90418C124.769 9.30308 124.893 9.60377 125.139 9.80639C125.386 10.0027 125.722 10.1008 126.146 10.1008C126.576 10.1008 126.896 10.0154 127.105 9.84439C127.32 9.67342 127.428 9.45501 127.428 9.18908C127.428 9.00549 127.374 8.85674 127.266 8.74273C127.165 8.62881 127.013 8.53702 126.811 8.46736C126.614 8.39136 126.374 8.3217 126.089 8.25839L125.871 8.21095C125.414 8.10963 125.022 7.98301 124.692 7.83104C124.37 7.67276 124.119 7.46699 123.943 7.21375C123.771 6.9605 123.686 6.63127 123.686 6.22607C123.686 5.82087 123.781 5.47581 123.971 5.1909C124.168 4.89967 124.439 4.67807 124.788 4.52612C125.142 4.36784 125.557 4.2887 126.032 4.2887C126.507 4.2887 126.928 4.371 127.295 4.53562C127.668 4.6939 127.96 4.93449 128.169 5.25738C128.384 5.57394 128.492 5.97281 128.492 6.45399V6.7389H127.257V6.45399C127.257 6.20074 127.206 5.99814 127.105 5.84619C127.01 5.68791 126.871 5.57394 126.687 5.5043C126.504 5.42833 126.285 5.39034 126.032 5.39034C125.652 5.39034 125.37 5.46315 125.186 5.60877C125.01 5.74805 124.921 5.94116 124.921 6.18808C124.921 6.35269 124.962 6.49198 125.044 6.60595C125.133 6.7199 125.263 6.81488 125.434 6.89085C125.605 6.96683 125.823 7.0333 126.089 7.09028L126.307 7.13777C126.782 7.23907 127.194 7.36886 127.542 7.52715C127.896 7.68542 128.172 7.89436 128.368 8.1539C128.564 8.41349 128.663 8.74591 128.663 9.15116C128.663 9.55633 128.558 9.91405 128.349 10.2243C128.147 10.5282 127.855 10.7687 127.475 10.9461C127.102 11.1169 126.658 11.2025 126.146 11.2025Z" fill="url(#paint0_linear_4039_2)"/>
<path d="M120.253 11.2025C119.429 11.2025 118.777 10.9745 118.296 10.5187C117.815 10.0565 117.574 9.39805 117.574 8.54328V6.94784C117.574 6.09311 117.815 5.43783 118.296 4.98197C118.777 4.51979 119.429 4.2887 120.253 4.2887C121.07 4.2887 121.699 4.51346 122.142 4.96298C122.592 5.40616 122.817 6.01714 122.817 6.79588V6.85286H121.582V6.7579C121.582 6.36536 121.472 6.04246 121.249 5.78921C121.035 5.53596 120.702 5.40933 120.253 5.40933C119.809 5.40933 119.461 5.54545 119.208 5.8177C118.955 6.08994 118.828 6.46032 118.828 6.92884V8.56232C118.828 9.02446 118.955 9.39488 119.208 9.67342C119.461 9.94571 119.809 10.0818 120.253 10.0818C120.702 10.0818 121.035 9.95523 121.249 9.70191C121.472 9.44232 121.582 9.1195 121.582 8.73329V8.56232H122.817V8.69529C122.817 9.47405 122.592 10.0881 122.142 10.5376C121.699 10.9809 121.07 11.2025 120.253 11.2025Z" fill="url(#paint1_linear_4039_2)"/>
<path d="M113.891 11.2025C113.056 11.2025 112.391 10.9745 111.897 10.5187C111.404 10.0565 111.156 9.39805 111.156 8.54328V6.94784C111.156 6.09311 111.404 5.43783 111.897 4.98197C112.391 4.51979 113.056 4.2887 113.891 4.2887C114.727 4.2887 115.392 4.51979 115.886 4.98197C116.38 5.43783 116.626 6.09311 116.626 6.94784V8.54328C116.626 9.39805 116.38 10.0565 115.886 10.5187C115.392 10.9745 114.727 11.2025 113.891 11.2025ZM113.891 10.0818C114.36 10.0818 114.724 9.94571 114.983 9.67342C115.243 9.40122 115.373 9.03715 115.373 8.58128V6.90984C115.373 6.45399 115.243 6.08994 114.983 5.8177C114.724 5.54545 114.36 5.40933 113.891 5.40933C113.429 5.40933 113.065 5.54545 112.799 5.8177C112.54 6.08994 112.41 6.45399 112.41 6.90984V8.58128C112.41 9.03715 112.54 9.40122 112.799 9.67342C113.065 9.94571 113.429 10.0818 113.891 10.0818Z" fill="url(#paint2_linear_4039_2)"/>
<path d="M104.793 11.0695V9.96784H105.667V5.5233H104.793V4.42165H107.529C108.421 4.42165 109.098 4.64958 109.561 5.10543C110.029 5.55495 110.264 6.22607 110.264 7.11878V8.3724C110.264 9.26508 110.029 9.93936 109.561 10.3952C109.098 10.8447 108.421 11.0695 107.529 11.0695H104.793ZM106.921 9.92984H107.547C108.054 9.92984 108.425 9.79687 108.659 9.53102C108.893 9.26508 109.01 8.89157 109.01 8.4104V7.08079C109.01 6.59329 108.893 6.21974 108.659 5.96015C108.425 5.69424 108.054 5.56128 107.547 5.56128H106.921V9.92984Z" fill="url(#paint3_linear_4039_2)"/>
<path d="M100.45 12.6461V2.85914C100.45 1.28008 101.73 0 103.309 0V1.42957C102.519 1.42957 101.879 2.06961 101.879 2.85914V12.6461C101.879 13.4357 102.519 14.0758 103.309 14.0758H130.14C130.931 14.0758 131.57 13.4357 131.57 12.6461V2.85914C131.57 2.06961 130.931 1.42957 130.14 1.42957V0C131.72 0 133 1.28008 133 2.85914V12.6461C133 14.2252 131.72 15.5054 130.14 15.5054H103.309C101.73 15.5054 100.45 14.2252 100.45 12.6461ZM130.14 0V1.42957H103.309V0H130.14Z" fill="url(#paint4_linear_4039_2)"/>
<path d="M4.14748 9.87914C6.87389 9.87914 9.35251 8.93519 9.35251 5.98757C9.35251 3.75162 7.28698 2.50971 4.41185 2.50971H0.925331C0.363523 2.50971 0 2.60915 0 3.03957C0 3.58613 0.85924 3.61915 0.85924 4.31487V11.9659C0.85924 12.6613 0 12.678 0 13.2412C0 13.6716 0.380046 13.7711 0.925331 13.7711H3.25519C3.80047 13.7711 4.18054 13.6716 4.18054 13.2412C4.18054 12.678 3.32128 12.6613 3.32128 11.9659V9.87914H4.14748ZM3.86656 3.66887H4.14748C5.6181 3.66887 6.65912 4.81171 6.65912 6.40166C6.65912 8.1404 5.41981 8.73668 4.09791 8.73668H3.32128V4.34789C3.32128 3.9338 3.43695 3.66887 3.86656 3.66887Z" fill="black"/>
<path d="M17.304 11.055C17.1387 11.055 17.0066 11.1214 16.8413 11.2869C16.2465 11.8995 15.7177 12.1811 14.9411 12.1811C13.4705 12.1811 12.4791 11.1711 12.2642 9.56447H16.5605C17.3701 9.56447 17.7336 9.21679 17.7336 8.40531C17.7336 6.69959 16.4943 5.2755 14.2306 5.2755C11.6694 5.2755 9.93439 7.1634 9.93439 9.76335C9.93439 12.3136 11.6859 14.003 14.3628 14.003C15.9986 14.003 17.1718 13.1084 17.618 12.0487C17.684 11.8665 17.7171 11.701 17.7171 11.5351C17.7171 11.2372 17.5353 11.055 17.304 11.055ZM13.9662 6.30219C15.0733 6.30219 15.4699 7.13001 15.4699 8.2068C15.4699 8.33926 15.4533 8.53777 15.4203 8.65354H12.2147C12.2808 7.27917 12.9748 6.30219 13.9662 6.30219Z" fill="black"/>
<path d="M19.751 13.7708H22.0808C22.5931 13.7708 22.9401 13.6714 22.9401 13.274C22.9401 12.7605 22.1139 12.7274 22.1139 12.0651V9.13381C22.1139 7.92493 22.527 7.66 23.0062 7.66C23.4523 7.66 23.601 7.79247 24.0306 7.79247C24.7742 7.79247 25.2865 7.36168 25.2865 6.50047C25.2865 5.7721 24.8734 5.24187 23.9976 5.24187C23.2871 5.24187 22.4278 5.7554 21.9817 6.84852H21.9156V6.08675C21.8991 5.50717 21.7504 5.25856 21.172 5.25856C20.412 5.25856 18.7265 5.87117 18.7265 6.35168C18.7265 6.69935 18.9744 6.7821 19.4205 7.04703C19.5857 7.16317 19.7344 7.36168 19.7179 7.77577V12.0651C19.7179 12.7274 18.8917 12.7605 18.8917 13.274C18.8917 13.6714 19.2387 13.7708 19.751 13.7708Z" fill="black"/>
<path d="M27.9417 4.33155C28.8009 4.33155 29.4453 3.80132 29.4453 2.95681C29.4453 2.1123 28.8009 1.58244 27.9417 1.58244C27.0989 1.58244 26.438 2.1123 26.438 2.95681C26.438 3.80132 27.0989 4.33155 27.9417 4.33155ZM26.8676 13.7711H29.1974C29.7097 13.7711 30.0567 13.6716 30.0567 13.2742C30.0567 12.7607 29.2305 12.7277 29.2305 12.0653V6.10331C29.214 5.59015 28.9826 5.2588 28.2721 5.2588C27.5286 5.2588 25.8431 5.73894 25.8431 6.26918C25.8431 6.60015 26.0579 6.64987 26.438 6.9315C26.6859 7.11368 26.8345 7.32889 26.8345 7.82573V12.0653C26.8345 12.7277 26.0083 12.7607 26.0083 13.2742C26.0083 13.6716 26.3553 13.7711 26.8676 13.7711Z" fill="black"/>
<path d="M34.8424 14.0192C35.9825 14.0192 36.8913 13.4727 37.4037 12.6946H37.4697V12.9098C37.4697 13.837 37.5855 14.0192 38.1472 14.0192C39.122 14.0192 40.5925 13.4563 40.5925 12.9098C40.5925 12.5951 40.378 12.4957 39.9977 12.3469C39.7168 12.2474 39.5847 12.0486 39.5847 11.6679V2.24467C39.568 1.69812 39.3038 1.40016 38.709 1.40016C37.9487 1.40016 36.1973 1.91332 36.1973 2.41016C36.1973 2.67509 36.313 2.75821 36.7426 3.02314C37.04 3.22165 37.2051 3.45356 37.2051 4.00011V5.8216C36.66 5.4576 36.0156 5.24202 35.1398 5.24202C32.6282 5.24202 31.0089 7.0969 31.0089 9.71355C31.0089 12.3302 32.6777 14.0192 34.8424 14.0192ZM35.6686 12.5784C34.3301 12.5784 33.4543 10.5581 33.4709 8.73657C33.4874 7.16332 34.0988 6.35183 35.1067 6.35183C36.2304 6.35183 37.1888 7.7262 37.1888 9.46532V10.492C37.1888 11.7009 36.5774 12.5784 35.6686 12.5784Z" fill="black"/>
<path d="M43.3999 4.33155C44.2592 4.33155 44.9034 3.80132 44.9034 2.95681C44.9034 2.1123 44.2592 1.58244 43.3999 1.58244C42.5572 1.58244 41.896 2.1123 41.896 2.95681C41.896 3.80132 42.5572 4.33155 43.3999 4.33155ZM42.3257 13.7711H44.6555C45.1679 13.7711 45.5149 13.6716 45.5149 13.2742C45.5149 12.7607 44.6885 12.7277 44.6885 12.0653V6.10331C44.6722 5.59015 44.4407 5.2588 43.7301 5.2588C42.9869 5.2588 41.3012 5.73894 41.3012 6.26918C41.3012 6.60015 41.516 6.64987 41.896 6.9315C42.1439 7.11368 42.2927 7.32889 42.2927 7.82573V12.0653C42.2927 12.7277 41.4663 12.7607 41.4663 13.2742C41.4663 13.6716 41.8136 13.7711 42.3257 13.7711Z" fill="black"/>
<path d="M50.9622 14.019C53.606 14.019 55.5889 12.1808 55.5889 9.49807C55.5889 6.81501 53.606 5.25845 51.1106 5.25845C48.5497 5.25845 46.4677 7.08031 46.451 9.7797C46.4677 12.363 48.3678 14.019 50.9622 14.019ZM51.4082 12.9095C49.822 12.9095 49.0124 10.4253 49.0124 8.60385C49.0124 7.2291 49.5574 6.35157 50.6316 6.35157C52.2179 6.35157 53.0275 8.83538 53.0275 10.6242C53.0275 12.0316 52.4494 12.9095 51.4082 12.9095Z" fill="black"/>
<path d="M65.8428 14.0645C62.1805 14.0645 59.8291 11.5656 59.8291 8.20644C59.8291 5.11763 61.9511 2.15173 65.9248 2.15173C68.1369 2.15173 68.4155 2.85633 68.989 2.85633C69.3659 2.85633 69.3413 2.68428 69.7755 2.68428C70.39 2.68428 70.8816 4.06892 70.8816 5.22415C70.8816 6.3466 70.2425 6.76445 69.669 6.76445C69.0545 6.76445 68.9644 6.27287 68.7268 5.64199C68.4401 4.66701 67.1537 3.71661 65.7855 3.71661C63.5324 3.71661 62.754 5.56006 62.754 7.14134C62.754 10.0089 64.5647 12.0736 66.7932 12.0736C68.3008 12.0736 69.1529 11.3526 69.6854 10.5005C69.8575 10.2138 69.9558 9.85326 70.2917 9.85326C70.5948 9.85326 70.9471 10.1646 70.9471 10.7545C70.9471 11.4591 70.5621 12.3685 70.2507 12.729C70.1524 12.8437 70.0295 12.9421 69.8575 12.9748C69.71 13.0076 69.5707 13.0158 69.415 13.0158C68.8989 13.024 68.0058 14.0645 65.8428 14.0645Z" fill="black"/>
<path d="M71.8698 10.1482C71.8698 7.9033 73.705 6.05984 76.2613 6.05984C78.4489 6.05984 80.0793 7.55918 80.0793 9.86964C80.0793 12.2129 78.2276 14.0563 75.8107 14.0563C73.5657 14.0563 71.8698 12.4341 71.8698 10.1482ZM76.2531 12.8028C77.0642 12.8028 77.6787 12.0654 77.6787 11.1232C77.6787 9.60747 76.9413 7.41171 75.7042 7.41171C74.9422 7.41171 74.3195 8.09174 74.3195 9.10769C74.3195 10.7299 75.0815 12.8028 76.2531 12.8028Z" fill="black"/>
<path d="M81.9165 10.4923V9.86964C81.9165 8.46862 81.8509 7.97703 81.5642 7.87052C81.3266 7.77221 81.1381 7.84594 80.9825 7.7804C80.8514 7.73943 80.7612 7.63292 80.7612 7.38713C80.7612 7.01844 80.9415 6.91193 81.3266 6.74807C82.4572 6.25648 83.719 6.09262 83.9729 6.09262C84.186 6.09262 84.2269 6.24829 84.2433 6.4695C84.2597 6.67433 84.2679 6.97747 84.2679 7.23965C84.2679 7.55919 84.3416 7.6657 84.4236 7.6657C84.5219 7.6657 84.6939 7.32978 84.8005 7.14953C85.1528 6.51866 85.6116 6.01888 86.3981 6.01888C87.3157 6.01888 87.8237 6.74807 87.8237 7.56738C87.8237 8.31295 87.283 9.00937 86.5784 9.00937C85.3822 9.00937 85.5214 8.10812 85.1773 8.10812C85.0872 8.10812 84.9889 8.1327 84.907 8.21463C84.6202 8.55055 84.3416 9.22239 84.3416 9.82868C84.3416 10.7791 84.399 11.8688 84.5055 12.2948C84.571 12.5488 84.6857 12.6553 84.8496 12.6963C85.0462 12.7454 85.3494 12.7127 85.5378 12.7782C85.6689 12.8274 85.7918 12.9503 85.7918 13.1961C85.7918 13.7368 84.9479 13.9908 83.2356 13.9908C81.5969 13.9908 80.7612 13.8925 80.7612 13.2616C80.7612 13.024 80.835 12.8847 80.9743 12.8274C81.1545 12.7209 81.3348 12.7618 81.5068 12.6799C81.6461 12.6389 81.7444 12.5324 81.81 12.303C81.9083 11.9835 81.9165 10.9348 81.9165 10.4923Z" fill="black"/>
<path d="M92.2964 6.01888C94.23 6.01888 95.418 7.73943 95.418 9.0913C95.418 9.39444 95.3115 9.77952 95.2705 9.88603C95.1968 10.0499 95.0821 10.0991 94.6806 10.0991L91.0428 10.0827C90.7233 10.0827 90.6086 10.1564 90.6086 10.3448C90.6086 10.4514 90.625 10.6644 90.6742 10.8364C90.9363 11.7541 91.6737 12.5324 92.7634 12.5324C93.9022 12.5324 94.4758 11.7213 94.7625 11.7213C94.9755 11.7213 95.1722 11.9261 95.1722 12.262C95.1722 12.8847 93.8121 14.0891 92.0096 14.0891C89.7238 14.0891 88.2408 12.5406 88.2408 10.1728C88.2408 7.60015 90.1088 6.01888 92.2964 6.01888ZM92.8699 9.06672C93.1239 9.07491 93.2632 8.87828 93.2632 8.68164C93.2632 7.87052 92.829 7.09218 92.0014 7.09218C91.305 7.09218 90.9118 7.57557 90.6987 8.16548C90.6086 8.44404 90.5922 8.71442 90.5922 8.84551C90.5922 9.03395 90.7889 9.05033 91.1248 9.05033L92.8699 9.06672Z" fill="black"/>
<defs>
<linearGradient id="paint0_linear_4039_2" x1="-61.6393" y1="-9.56827" x2="46.0211" y2="127.714" gradientUnits="userSpaceOnUse">
<stop stop-color="#3424EE"/>
<stop offset="1" stop-color="#7367FF"/>
</linearGradient>
<linearGradient id="paint1_linear_4039_2" x1="-21.1099" y1="-9.56827" x2="87.0911" y2="125.405" gradientUnits="userSpaceOnUse">
<stop stop-color="#3424EE"/>
<stop offset="1" stop-color="#7367FF"/>
</linearGradient>
<linearGradient id="paint2_linear_4039_2" x1="22.1452" y1="-9.56827" x2="131.258" y2="120.873" gradientUnits="userSpaceOnUse">
<stop stop-color="#3424EE"/>
<stop offset="1" stop-color="#7367FF"/>
</linearGradient>
<linearGradient id="paint3_linear_4039_2" x1="60.0107" y1="-10.2611" x2="174.192" y2="120.983" gradientUnits="userSpaceOnUse">
<stop stop-color="#3424EE"/>
<stop offset="1" stop-color="#7367FF"/>
</linearGradient>
<linearGradient id="paint4_linear_4039_2" x1="97.9973" y1="0.0222852" x2="135.023" y2="16.7042" gradientUnits="userSpaceOnUse">
<stop stop-color="#3424EE"/>
<stop offset="1" stop-color="#7367FF"/>
</linearGradient>
</defs>
</svg>
